<svg xmlns="http://www.w3.org/2000/svg" xmlns:xlink="http://www.w3.org/1999/xlink" width="500" zoomAndPan="magnify" viewBox="0 0 375 374.999991" height="500" preserveAspectRatio="xMidYMid meet" version="1.0"><defs><g/><clipPath id="9b612f171a"><path d="M 7 69 L 367 69 L 367 209.996094 L 7 209.996094 Z M 7 69 " clip-rule="nonzero"/></clipPath><clipPath id="8153cc8e1a"><path d="M 40 114.367188 L 132.25 114.367188 L 132.25 196.867188 L 40 196.867188 Z M 40 114.367188 " clip-rule="nonzero"/></clipPath></defs><g clip-path="url(#9b612f171a)"><path fill="#ffffff" d="M 364.316406 112.75 L 195.460938 70.476562 C 189.792969 69.058594 183.890625 69.058594 178.339844 70.476562 L 9.363281 112.75 C 6.414062 113.457031 6.414062 117.707031 9.363281 118.417969 L 92.375 139.199219 C 139.371094 125.265625 189.910156 124.558594 237.96875 133.058594 C 189.320312 127.628906 138.074219 131.878906 92.375 149.472656 L 92.375 173.207031 C 92.375 175.214844 94.265625 176.515625 96.152344 175.925781 C 123.078125 167.65625 154.015625 162.816406 186.839844 162.816406 C 219.667969 162.816406 250.605469 167.65625 277.644531 175.925781 C 279.535156 176.515625 281.304688 175.214844 281.304688 173.207031 L 281.304688 139.199219 L 317.554688 130.109375 L 317.554688 193.636719 L 316.964844 193.636719 C 315.667969 193.636719 314.605469 194.699219 314.605469 195.996094 L 314.605469 207.6875 C 314.605469 208.984375 315.667969 210.050781 316.964844 210.050781 L 324.050781 210.050781 C 325.347656 210.050781 326.410156 208.984375 326.410156 207.6875 L 326.410156 195.996094 C 326.410156 194.699219 325.347656 193.636719 324.050781 193.636719 L 323.460938 193.636719 L 323.460938 128.691406 L 364.316406 118.417969 C 367.386719 117.710938 367.386719 113.460938 364.316406 112.75 Z M 364.316406 112.75 " fill-opacity="1" fill-rule="nonzero"/></g><g clip-path="url(#8153cc8e1a)"><path fill="#48ab5d" d="M 122.410156 155.609375 C 122.410156 178.367188 103.964844 196.8125 81.207031 196.8125 C 58.453125 196.8125 40 178.34375 40 155.609375 C 40 132.878906 58.445312 114.410156 81.203125 114.410156 C 83.945312 114.40625 86.664062 114.675781 89.351562 115.214844 C 92.042969 115.757812 94.652344 116.558594 97.179688 117.625 C 99.710938 118.6875 102.109375 119.992188 104.375 121.535156 C 106.644531 123.082031 108.734375 124.835938 110.652344 126.796875 L 104.503906 132.945312 C 103.003906 131.398438 101.363281 130.011719 99.585938 128.792969 C 97.808594 127.570312 95.929688 126.539062 93.945312 125.695312 C 91.960938 124.847656 89.914062 124.207031 87.800781 123.773438 C 85.691406 123.335938 83.554688 123.113281 81.398438 123.101562 C 63.542969 122.996094 48.828125 137.5 48.695312 155.367188 C 48.6875 156.519531 48.738281 157.667969 48.855469 158.8125 C 48.96875 159.960938 49.144531 161.097656 49.378906 162.222656 C 49.613281 163.351562 49.910156 164.464844 50.261719 165.558594 C 50.617188 166.65625 51.027344 167.730469 51.496094 168.785156 C 51.960938 169.835938 52.484375 170.863281 53.0625 171.859375 C 53.636719 172.855469 54.265625 173.820312 54.945312 174.75 C 55.625 175.679688 56.351562 176.574219 57.125 177.425781 C 57.898438 178.277344 58.714844 179.089844 59.578125 179.855469 C 60.4375 180.621094 61.335938 181.339844 62.273438 182.011719 C 63.207031 182.683594 64.175781 183.300781 65.179688 183.867188 C 66.183594 184.4375 67.210938 184.949219 68.269531 185.410156 C 69.324219 185.867188 70.402344 186.269531 71.503906 186.613281 C 72.601562 186.953125 73.71875 187.238281 74.847656 187.464844 C 75.976562 187.691406 77.117188 187.855469 78.261719 187.957031 C 79.410156 188.0625 80.558594 188.105469 81.710938 188.089844 C 82.863281 188.070312 84.011719 187.992188 85.15625 187.851562 C 86.296875 187.710938 87.429688 187.511719 88.554688 187.25 C 89.675781 186.988281 90.78125 186.671875 91.867188 186.292969 C 92.957031 185.914062 94.023438 185.480469 95.0625 184.988281 C 96.105469 184.5 97.117188 183.953125 98.101562 183.355469 C 99.085938 182.753906 100.035156 182.105469 100.953125 181.40625 C 101.867188 180.707031 102.742188 179.960938 103.578125 179.167969 C 104.414062 178.375 105.207031 177.539062 105.953125 176.664062 C 106.699219 175.785156 107.398438 174.871094 108.046875 173.921875 C 108.699219 172.96875 109.292969 171.984375 109.839844 170.972656 C 110.386719 169.957031 110.875 168.914062 111.308594 167.847656 C 111.746094 166.78125 112.121094 165.695312 112.441406 164.589844 C 112.761719 163.480469 113.019531 162.359375 113.21875 161.226562 C 113.417969 160.09375 113.558594 158.949219 113.636719 157.800781 C 113.714844 156.652344 113.734375 155.5 113.691406 154.351562 C 113.644531 153.199219 113.542969 152.054688 113.375 150.914062 C 113.210938 149.773438 112.984375 148.644531 112.699219 147.527344 L 119.59375 140.632812 C 121.476562 145.449219 122.414062 150.441406 122.410156 155.609375 Z M 83.257812 157.132812 L 73.390625 147.269531 C 72.824219 146.699219 72.203125 146.195312 71.535156 145.746094 C 70.867188 145.300781 70.164062 144.925781 69.421875 144.617188 C 68.679688 144.308594 67.914062 144.078125 67.125 143.921875 C 66.335938 143.761719 65.542969 143.683594 64.738281 143.683594 C 63.933594 143.683594 63.140625 143.761719 62.351562 143.921875 C 61.5625 144.078125 60.796875 144.308594 60.054688 144.617188 C 59.3125 144.925781 58.609375 145.300781 57.941406 145.746094 C 57.269531 146.195312 56.652344 146.699219 56.085938 147.269531 L 74.597656 165.785156 L 81.351562 172.542969 C 81.605469 172.792969 81.894531 172.988281 82.222656 173.125 C 82.550781 173.261719 82.894531 173.328125 83.25 173.328125 C 83.605469 173.328125 83.949219 173.261719 84.277344 173.125 C 84.605469 172.988281 84.894531 172.792969 85.148438 172.542969 L 91.90625 165.785156 L 132.179688 125.507812 C 131.613281 124.941406 130.996094 124.433594 130.328125 123.988281 C 129.660156 123.539062 128.953125 123.164062 128.210938 122.855469 C 127.46875 122.550781 126.703125 122.316406 125.914062 122.160156 C 125.125 122.003906 124.332031 121.925781 123.527344 121.925781 C 122.722656 121.925781 121.929688 122.003906 121.140625 122.160156 C 120.351562 122.316406 119.585938 122.550781 118.84375 122.855469 C 118.101562 123.164062 117.394531 123.539062 116.726562 123.988281 C 116.058594 124.433594 115.441406 124.941406 114.875 125.507812 Z M 83.257812 157.132812 " fill-opacity="1" fill-rule="nonzero"/></g><g fill="#ae2244" fill-opacity="1"><g transform="translate(-2.666337, 269.376804)"><g><path d="M 2.875 -30.71875 C 2.875 -36.769531 4.179688 -42.164062 6.796875 -46.90625 C 9.421875 -51.644531 13.070312 -55.335938 17.75 -57.984375 C 22.4375 -60.628906 27.75 -61.953125 33.6875 -61.953125 C 40.957031 -61.953125 47.179688 -60.03125 52.359375 -56.1875 C 57.535156 -52.351562 61 -47.117188 62.75 -40.484375 L 46.34375 -40.484375 C 45.113281 -43.046875 43.378906 -44.992188 41.140625 -46.328125 C 38.898438 -47.671875 36.359375 -48.34375 33.515625 -48.34375 C 28.910156 -48.34375 25.179688 -46.742188 22.328125 -43.546875 C 19.484375 -40.347656 18.0625 -36.070312 18.0625 -30.71875 C 18.0625 -25.363281 19.484375 -21.085938 22.328125 -17.890625 C 25.179688 -14.691406 28.910156 -13.09375 33.515625 -13.09375 C 36.359375 -13.09375 38.898438 -13.757812 41.140625 -15.09375 C 43.378906 -16.4375 45.113281 -18.382812 46.34375 -20.9375 L 62.75 -20.9375 C 61 -14.3125 57.535156 -9.09375 52.359375 -5.28125 C 47.179688 -1.46875 40.957031 0.4375 33.6875 0.4375 C 27.75 0.4375 22.4375 -0.882812 17.75 -3.53125 C 13.070312 -6.175781 9.421875 -9.851562 6.796875 -14.5625 C 4.179688 -19.28125 2.875 -24.664062 2.875 -30.71875 Z M 2.875 -30.71875 "/></g></g></g><g fill="#ae2244" fill-opacity="1"><g transform="translate(63.815178, 269.376804)"><g><path d="M 34.375 0.609375 C 28.625 0.609375 23.347656 -0.726562 18.546875 -3.40625 C 13.742188 -6.082031 9.929688 -9.816406 7.109375 -14.609375 C 4.285156 -19.410156 2.875 -24.8125 2.875 -30.8125 C 2.875 -36.800781 4.285156 -42.179688 7.109375 -46.953125 C 9.929688 -51.722656 13.742188 -55.445312 18.546875 -58.125 C 23.347656 -60.800781 28.625 -62.140625 34.375 -62.140625 C 40.132812 -62.140625 45.414062 -60.800781 50.21875 -58.125 C 55.019531 -55.445312 58.800781 -51.722656 61.5625 -46.953125 C 64.332031 -42.179688 65.71875 -36.800781 65.71875 -30.8125 C 65.71875 -24.8125 64.316406 -19.410156 61.515625 -14.609375 C 58.722656 -9.816406 54.941406 -6.082031 50.171875 -3.40625 C 45.398438 -0.726562 40.132812 0.609375 34.375 0.609375 Z M 34.375 -13 C 39.269531 -13 43.1875 -14.628906 46.125 -17.890625 C 49.0625 -21.148438 50.53125 -25.457031 50.53125 -30.8125 C 50.53125 -36.21875 49.0625 -40.535156 46.125 -43.765625 C 43.1875 -46.992188 39.269531 -48.609375 34.375 -48.609375 C 29.4375 -48.609375 25.5 -47.003906 22.5625 -43.796875 C 19.625 -40.597656 18.15625 -36.269531 18.15625 -30.8125 C 18.15625 -25.394531 19.625 -21.070312 22.5625 -17.84375 C 25.5 -14.613281 29.4375 -13 34.375 -13 Z M 34.375 -13 "/></g></g></g><g fill="#ae2244" fill-opacity="1"><g transform="translate(132.390587, 269.376804)"><g><path d="M 20.328125 -11.515625 L 39.875 -11.515625 L 39.875 0 L 5.40625 0 L 5.40625 -61.265625 L 20.328125 -61.265625 Z M 20.328125 -11.515625 "/></g></g></g><g fill="#ae2244" fill-opacity="1"><g transform="translate(174.006968, 269.376804)"><g><path d="M 20.328125 -11.515625 L 39.875 -11.515625 L 39.875 0 L 5.40625 0 L 5.40625 -61.265625 L 20.328125 -61.265625 Z M 20.328125 -11.515625 "/></g></g></g><g fill="#ae2244" fill-opacity="1"><g transform="translate(215.623348, 269.376804)"><g><path d="M 20.328125 -49.3125 L 20.328125 -36.90625 L 40.3125 -36.90625 L 40.3125 -25.390625 L 20.328125 -25.390625 L 20.328125 -11.953125 L 42.9375 -11.953125 L 42.9375 0 L 5.40625 0 L 5.40625 -61.265625 L 42.9375 -61.265625 L 42.9375 -49.3125 Z M 20.328125 -49.3125 "/></g></g></g><g fill="#ae2244" fill-opacity="1"><g transform="translate(262.823478, 269.376804)"><g><path d="M 46.078125 -41.890625 C 44.972656 -43.921875 43.382812 -45.472656 41.3125 -46.546875 C 39.25 -47.628906 36.820312 -48.171875 34.03125 -48.171875 C 29.207031 -48.171875 25.335938 -46.582031 22.421875 -43.40625 C 19.515625 -40.238281 18.0625 -36.007812 18.0625 -30.71875 C 18.0625 -25.070312 19.585938 -20.660156 22.640625 -17.484375 C 25.703125 -14.316406 29.90625 -12.734375 35.25 -12.734375 C 38.914062 -12.734375 42.015625 -13.664062 44.546875 -15.53125 C 47.078125 -17.394531 48.925781 -20.070312 50.09375 -23.5625 L 31.15625 -23.5625 L 31.15625 -34.5625 L 63.609375 -34.5625 L 63.609375 -20.6875 C 62.503906 -16.957031 60.628906 -13.492188 57.984375 -10.296875 C 55.335938 -7.097656 51.976562 -4.507812 47.90625 -2.53125 C 43.832031 -0.550781 39.238281 0.4375 34.125 0.4375 C 28.070312 0.4375 22.675781 -0.882812 17.9375 -3.53125 C 13.195312 -6.175781 9.5 -9.851562 6.84375 -14.5625 C 4.195312 -19.28125 2.875 -24.664062 2.875 -30.71875 C 2.875 -36.769531 4.195312 -42.164062 6.84375 -46.90625 C 9.5 -51.644531 13.179688 -55.335938 17.890625 -57.984375 C 22.597656 -60.628906 27.976562 -61.953125 34.03125 -61.953125 C 41.363281 -61.953125 47.546875 -60.175781 52.578125 -56.625 C 57.609375 -53.082031 60.9375 -48.171875 62.5625 -41.890625 Z M 46.078125 -41.890625 "/></g></g></g><g fill="#ae2244" fill-opacity="1"><g transform="translate(329.304993, 269.376804)"><g><path d="M 20.328125 -49.3125 L 20.328125 -36.90625 L 40.3125 -36.90625 L 40.3125 -25.390625 L 20.328125 -25.390625 L 20.328125 -11.953125 L 42.9375 -11.953125 L 42.9375 0 L 5.40625 0 L 5.40625 -61.265625 L 42.9375 -61.265625 L 42.9375 -49.3125 Z M 20.328125 -49.3125 "/></g></g></g><g fill="#fdfdfd" fill-opacity="1"><g transform="translate(95.060377, 295.680131)"><g><path d="M 9.46875 0 L 6 -6.046875 L 4.109375 -6.046875 L 4.109375 0 L 1.625 0 L 1.625 -15.109375 L 6.84375 -15.109375 C 8 -15.109375 8.976562 -14.90625 9.78125 -14.5 C 10.59375 -14.09375 11.195312 -13.546875 11.59375 -12.859375 C 11.988281 -12.179688 12.1875 -11.421875 12.1875 -10.578125 C 12.1875 -9.597656 11.898438 -8.703125 11.328125 -7.890625 C 10.753906 -7.085938 9.875 -6.546875 8.6875 -6.265625 L 12.4375 0 Z M 4.109375 -8.015625 L 6.84375 -8.015625 C 7.769531 -8.015625 8.46875 -8.242188 8.9375 -8.703125 C 9.414062 -9.171875 9.65625 -9.796875 9.65625 -10.578125 C 9.65625 -11.367188 9.421875 -11.984375 8.953125 -12.421875 C 8.492188 -12.859375 7.789062 -13.078125 6.84375 -13.078125 L 4.109375 -13.078125 Z M 4.109375 -8.015625 "/></g></g></g><g fill="#fdfdfd" fill-opacity="1"><g transform="translate(124.0003, 295.680131)"><g><path d="M 10.734375 -3.09375 L 4.40625 -3.09375 L 3.328125 0 L 0.734375 0 L 6.15625 -15.125 L 9.015625 -15.125 L 14.4375 0 L 11.828125 0 Z M 10.046875 -5.109375 L 7.578125 -12.125 L 5.109375 -5.109375 Z M 10.046875 -5.109375 "/></g></g></g><g fill="#fdfdfd" fill-opacity="1"><g transform="translate(154.352466, 295.680131)"><g><path d="M 11.390625 -15.109375 L 11.390625 -13.078125 L 7.375 -13.078125 L 7.375 0 L 4.890625 0 L 4.890625 -13.078125 L 0.84375 -13.078125 L 0.84375 -15.109375 Z M 11.390625 -15.109375 "/></g></g></g><g fill="#fdfdfd" fill-opacity="1"><g transform="translate(181.81498, 295.680131)"><g><path d="M 4.109375 -15.109375 L 4.109375 0 L 1.625 0 L 1.625 -15.109375 Z M 4.109375 -15.109375 "/></g></g></g><g fill="#fdfdfd" fill-opacity="1"><g transform="translate(202.759493, 295.680131)"><g><path d="M 14.046875 0 L 11.5625 0 L 4.109375 -11.28125 L 4.109375 0 L 1.625 0 L 1.625 -15.125 L 4.109375 -15.125 L 11.5625 -3.875 L 11.5625 -15.125 L 14.046875 -15.125 Z M 14.046875 0 "/></g></g></g><g fill="#fdfdfd" fill-opacity="1"><g transform="translate(233.633098, 295.680131)"><g><path d="M 12.5625 -10.765625 C 12.164062 -11.515625 11.617188 -12.082031 10.921875 -12.46875 C 10.234375 -12.851562 9.429688 -13.046875 8.515625 -13.046875 C 7.515625 -13.046875 6.625 -12.816406 5.84375 -12.359375 C 5.0625 -11.910156 4.445312 -11.273438 4 -10.453125 C 3.5625 -9.628906 3.34375 -8.671875 3.34375 -7.578125 C 3.34375 -6.492188 3.5625 -5.535156 4 -4.703125 C 4.445312 -3.867188 5.0625 -3.226562 5.84375 -2.78125 C 6.625 -2.332031 7.515625 -2.109375 8.515625 -2.109375 C 9.867188 -2.109375 10.960938 -2.484375 11.796875 -3.234375 C 12.640625 -3.992188 13.15625 -5.015625 13.34375 -6.296875 L 7.671875 -6.296875 L 7.671875 -8.28125 L 16 -8.28125 L 16 -6.34375 C 15.832031 -5.175781 15.410156 -4.097656 14.734375 -3.109375 C 14.066406 -2.117188 13.191406 -1.332031 12.109375 -0.75 C 11.035156 -0.164062 9.835938 0.125 8.515625 0.125 C 7.097656 0.125 5.800781 -0.203125 4.625 -0.859375 C 3.457031 -1.515625 2.523438 -2.429688 1.828125 -3.609375 C 1.140625 -4.785156 0.796875 -6.109375 0.796875 -7.578125 C 0.796875 -9.054688 1.140625 -10.382812 1.828125 -11.5625 C 2.523438 -12.738281 3.460938 -13.65625 4.640625 -14.3125 C 5.816406 -14.96875 7.109375 -15.296875 8.515625 -15.296875 C 10.128906 -15.296875 11.5625 -14.898438 12.8125 -14.109375 C 14.0625 -13.328125 14.972656 -12.210938 15.546875 -10.765625 Z M 12.5625 -10.765625 "/></g></g></g><g fill="#fdfdfd" fill-opacity="1"><g transform="translate(265.636489, 295.680131)"><g><path d="M 6.609375 0.15625 C 5.585938 0.15625 4.671875 -0.0195312 3.859375 -0.375 C 3.054688 -0.726562 2.421875 -1.234375 1.953125 -1.890625 C 1.492188 -2.546875 1.265625 -3.304688 1.265625 -4.171875 L 3.90625 -4.171875 C 3.96875 -3.515625 4.226562 -2.976562 4.6875 -2.5625 C 5.144531 -2.144531 5.785156 -1.9375 6.609375 -1.9375 C 7.460938 -1.9375 8.128906 -2.140625 8.609375 -2.546875 C 9.085938 -2.960938 9.328125 -3.5 9.328125 -4.15625 C 9.328125 -4.65625 9.175781 -5.066406 8.875 -5.390625 C 8.582031 -5.710938 8.210938 -5.957031 7.765625 -6.125 C 7.328125 -6.300781 6.71875 -6.488281 5.9375 -6.6875 C 4.945312 -6.945312 4.144531 -7.210938 3.53125 -7.484375 C 2.914062 -7.753906 2.390625 -8.171875 1.953125 -8.734375 C 1.515625 -9.296875 1.296875 -10.050781 1.296875 -11 C 1.296875 -11.863281 1.515625 -12.625 1.953125 -13.28125 C 2.390625 -13.9375 3 -14.4375 3.78125 -14.78125 C 4.5625 -15.125 5.46875 -15.296875 6.5 -15.296875 C 7.957031 -15.296875 9.15625 -14.929688 10.09375 -14.203125 C 11.03125 -13.472656 11.550781 -12.46875 11.65625 -11.1875 L 8.90625 -11.1875 C 8.863281 -11.738281 8.601562 -12.207031 8.125 -12.59375 C 7.644531 -12.988281 7.015625 -13.1875 6.234375 -13.1875 C 5.523438 -13.1875 4.945312 -13.003906 4.5 -12.640625 C 4.050781 -12.285156 3.828125 -11.765625 3.828125 -11.078125 C 3.828125 -10.617188 3.96875 -10.238281 4.25 -9.9375 C 4.53125 -9.644531 4.890625 -9.410156 5.328125 -9.234375 C 5.765625 -9.054688 6.359375 -8.867188 7.109375 -8.671875 C 8.109375 -8.398438 8.921875 -8.125 9.546875 -7.84375 C 10.179688 -7.570312 10.71875 -7.148438 11.15625 -6.578125 C 11.601562 -6.003906 11.828125 -5.238281 11.828125 -4.28125 C 11.828125 -3.507812 11.617188 -2.785156 11.203125 -2.109375 C 10.785156 -1.429688 10.179688 -0.882812 9.390625 -0.46875 C 8.609375 -0.0507812 7.679688 0.15625 6.609375 0.15625 Z M 6.609375 0.15625 "/></g></g></g></svg>